<svg width="350" height="162" viewBox="0 0 350 162" fill="none" xmlns="http://www.w3.org/2000/svg">
<path d="M6.779 38.861C7.43766 38.861 7.99666 38.939 8.456 39.095C8.924 39.251 9.29666 39.5067 9.574 39.862C9.85133 40.2173 10.0507 40.694 10.172 41.292C10.302 41.89 10.367 42.631 10.367 43.515C10.367 44.3903 10.302 45.1313 10.172 45.738C10.0507 46.336 9.85133 46.8127 9.574 47.168C9.29666 47.5233 8.924 47.779 8.456 47.935C7.99666 48.091 7.43766 48.169 6.779 48.169C6.12033 48.169 5.557 48.091 5.089 47.935C4.62966 47.779 4.257 47.5233 3.971 47.168C3.69366 46.8127 3.49 46.336 3.36 45.738C3.23 45.1313 3.165 44.3903 3.165 43.515C3.165 42.631 3.23 41.89 3.36 41.292C3.49 40.694 3.69366 40.2173 3.971 39.862C4.257 39.5067 4.62966 39.251 5.089 39.095C5.557 38.939 6.12033 38.861 6.779 38.861ZM6.779 39.992C6.21566 39.992 5.76933 40.1003 5.44 40.317C5.11066 40.5337 4.87666 40.8977 4.738 41.409C4.608 41.9117 4.543 42.6137 4.543 43.515C4.543 44.4077 4.608 45.1097 4.738 45.621C4.87666 46.1323 5.11066 46.4963 5.44 46.713C5.76933 46.9297 6.21566 47.038 6.779 47.038C7.34233 47.038 7.78433 46.9297 8.105 46.713C8.43433 46.4963 8.66833 46.1323 8.807 45.621C8.94566 45.1097 9.015 44.4077 9.015 43.515C9.015 42.6137 8.94566 41.9117 8.807 41.409C8.66833 40.8977 8.43433 40.5337 8.105 40.317C7.78433 40.1003 7.34233 39.992 6.779 39.992ZM25.4802 39.03C25.2982 39.5413 25.1292 40.0137 24.9732 40.447C24.8259 40.8717 24.6742 41.253 24.5182 41.591C24.3622 41.9203 24.1932 42.2063 24.0112 42.449C23.8292 42.6917 23.6212 42.8867 23.3872 43.034C23.1532 43.1727 22.8759 43.2593 22.5552 43.294V43.346C22.8932 43.3807 23.1879 43.4717 23.4392 43.619C23.6905 43.7577 23.9115 43.957 24.1022 44.217C24.3015 44.4683 24.4835 44.776 24.6482 45.14C24.8129 45.504 24.9775 45.9287 25.1422 46.414C25.3155 46.8907 25.5062 47.4193 25.7142 48H24.3492C24.1065 47.3067 23.8899 46.7 23.6992 46.18C23.5172 45.66 23.3222 45.2267 23.1142 44.88C22.9149 44.5333 22.6809 44.2733 22.4122 44.1C22.1435 43.918 21.8055 43.827 21.3982 43.827V42.826C21.7795 42.826 22.1002 42.735 22.3602 42.553C22.6289 42.3623 22.8629 42.098 23.0622 41.76C23.2615 41.422 23.4435 41.0233 23.6082 40.564C23.7815 40.1047 23.9635 39.5933 24.1542 39.03H25.4802ZM20.5662 39.03V41.786C20.5662 42.0547 20.5532 42.3147 20.5272 42.566C20.5012 42.8173 20.4579 43.0643 20.3972 43.307C20.4405 43.5497 20.4795 43.7967 20.5142 44.048C20.5489 44.2993 20.5662 44.5377 20.5662 44.763V48H19.2792V39.03H20.5662ZM21.8922 42.826V43.827H20.1892V42.826H21.8922ZM31.8315 41.5C32.5769 41.5 33.1705 41.6083 33.6125 41.825C34.0545 42.0417 34.3752 42.397 34.5745 42.891C34.7739 43.3763 34.8735 44.022 34.8735 44.828C34.8735 45.6427 34.7739 46.297 34.5745 46.791C34.3752 47.2763 34.0545 47.6273 33.6125 47.844C33.1705 48.0607 32.5769 48.169 31.8315 48.169C31.0862 48.169 30.4882 48.0607 30.0375 47.844C29.5955 47.6273 29.2749 47.2763 29.0755 46.791C28.8762 46.297 28.7765 45.6427 28.7765 44.828C28.7765 44.022 28.8762 43.3763 29.0755 42.891C29.2749 42.397 29.5955 42.0417 30.0375 41.825C30.4882 41.6083 31.0862 41.5 31.8315 41.5ZM31.8315 42.514C31.3982 42.514 31.0515 42.5833 30.7915 42.722C30.5402 42.8607 30.3582 43.099 30.2455 43.437C30.1415 43.7663 30.0895 44.23 30.0895 44.828C30.0895 45.426 30.1415 45.894 30.2455 46.232C30.3582 46.57 30.5402 46.8083 30.7915 46.947C31.0515 47.077 31.3982 47.142 31.8315 47.142C32.2649 47.142 32.6072 47.077 32.8585 46.947C33.1099 46.8083 33.2875 46.57 33.3915 46.232C33.4955 45.894 33.5475 45.426 33.5475 44.828C33.5475 44.23 33.4955 43.7663 33.3915 43.437C33.2875 43.099 33.1099 42.8607 32.8585 42.722C32.6072 42.5833 32.2649 42.514 31.8315 42.514ZM45.8741 41.656C46.1861 41.656 46.3421 41.8077 46.3421 42.111L46.6021 48H45.4321L45.1981 42.605H44.9901L43.4691 46.882C43.4344 47.012 43.3781 47.1117 43.3001 47.181C43.2221 47.2503 43.1137 47.285 42.9751 47.285H42.1041C41.9654 47.285 41.8571 47.2503 41.7791 47.181C41.7097 47.1117 41.6534 47.012 41.6101 46.882L40.0891 42.605H39.8811L39.6601 48H38.5031L38.7501 42.111C38.7587 41.8077 38.9191 41.656 39.2311 41.656H40.4791C40.6177 41.656 40.7217 41.6907 40.7911 41.76C40.8691 41.8207 40.9254 41.9203 40.9601 42.059L42.1821 45.556C42.2427 45.712 42.2904 45.8637 42.3251 46.011C42.3684 46.1583 42.4074 46.31 42.4421 46.466H42.6371C42.6804 46.3013 42.7194 46.1453 42.7541 45.998C42.7974 45.8507 42.8451 45.7033 42.8971 45.556L44.1191 42.059C44.1971 41.7903 44.3617 41.656 44.6131 41.656H45.8741ZM56.0775 41.656V48H54.8425V41.656H56.0775ZM51.7485 41.656V48H50.5265V41.656H51.7485ZM54.9595 41.656L54.9465 42.631H51.6835V41.656H54.9595ZM63.2029 41.5C63.6882 41.5 64.0955 41.565 64.4249 41.695C64.7542 41.8163 65.0012 42.0287 65.1659 42.332C65.3392 42.6353 65.4259 43.0513 65.4259 43.58V48H64.4379L64.2429 46.622L64.1779 46.466V43.58C64.1692 43.2073 64.0782 42.9387 63.9049 42.774C63.7402 42.6093 63.4152 42.527 62.9299 42.527C62.5919 42.527 62.1715 42.5443 61.6689 42.579C61.1749 42.6137 60.6852 42.6483 60.1999 42.683L60.0829 41.786C60.3775 41.734 60.7069 41.6863 61.0709 41.643C61.4349 41.5997 61.8032 41.565 62.1759 41.539C62.5485 41.513 62.8909 41.5 63.2029 41.5ZM64.8539 44.087L64.8409 44.971L61.8639 44.984C61.5692 44.9927 61.3612 45.0707 61.2399 45.218C61.1185 45.3567 61.0579 45.5517 61.0579 45.803V46.193C61.0579 46.505 61.1359 46.7347 61.2919 46.882C61.4479 47.0207 61.6862 47.09 62.0069 47.09C62.2495 47.09 62.5182 47.0467 62.8129 46.96C63.1162 46.8647 63.4195 46.726 63.7229 46.544C64.0262 46.3533 64.2992 46.115 64.5419 45.829V46.648C64.4639 46.7693 64.3382 46.9167 64.1649 47.09C63.9915 47.2547 63.7792 47.415 63.5279 47.571C63.2852 47.727 63.0122 47.857 62.7089 47.961C62.4055 48.065 62.0762 48.117 61.7209 48.117C61.3395 48.117 61.0015 48.052 60.7069 47.922C60.4209 47.7833 60.1955 47.584 60.0309 47.324C59.8749 47.0553 59.7969 46.7303 59.7969 46.349V45.66C59.7969 45.166 59.9529 44.7803 60.2649 44.503C60.5855 44.2257 61.0275 44.087 61.5909 44.087H64.8539ZM70.6735 41.656V48H69.4385V41.656H70.6735ZM73.9625 44.165V45.101H70.5955V44.165H73.9625ZM75.0805 41.656V48H73.8455V41.656H75.0805ZM84.8297 41.656V48H83.6987V43.957C83.6987 43.8097 83.703 43.6667 83.7117 43.528C83.7203 43.3893 83.7333 43.2377 83.7507 43.073H83.7117C83.6597 43.203 83.5903 43.3417 83.5037 43.489C83.4257 43.6277 83.3477 43.749 83.2697 43.853L80.1887 48H79.1357V41.656H80.2667V45.712C80.2667 45.8507 80.2623 45.9893 80.2537 46.128C80.2537 46.2667 80.245 46.4183 80.2277 46.583H80.2537C80.323 46.4443 80.3967 46.31 80.4747 46.18C80.5527 46.0413 80.6307 45.9243 80.7087 45.829L83.7897 41.656H84.8297ZM94.5903 41.656V48H93.4593V43.957C93.4593 43.8097 93.4637 43.6667 93.4723 43.528C93.481 43.3893 93.494 43.2377 93.5113 43.073H93.4723C93.4203 43.203 93.351 43.3417 93.2643 43.489C93.1863 43.6277 93.1083 43.749 93.0303 43.853L89.9493 48H88.8963V41.656H90.0273V45.712C90.0273 45.8507 90.023 45.9893 90.0143 46.128C90.0143 46.2667 90.0057 46.4183 89.9883 46.583H90.0143C90.0837 46.4443 90.1573 46.31 90.2353 46.18C90.3133 46.0413 90.3913 45.9243 90.4693 45.829L93.5503 41.656H94.5903Z" fill="white"/>
<path d="M7.943 85.03V94H6.695V87.682C6.695 87.5087 6.69933 87.3353 6.708 87.162C6.71667 86.98 6.734 86.8023 6.76 86.629H6.695C6.63433 86.8023 6.56067 86.9757 6.474 87.149C6.38733 87.3223 6.30067 87.487 6.214 87.643L2.405 94H1.092V85.03H2.353V91.27C2.353 91.452 2.34433 91.6383 2.327 91.829C2.30967 92.011 2.29233 92.193 2.275 92.375H2.327C2.39633 92.2017 2.47433 92.0283 2.561 91.855C2.65633 91.6817 2.75167 91.517 2.847 91.361L6.617 85.03H7.943ZM13.3421 87.656V94H12.1071V87.656H13.3421ZM16.6311 90.165V91.101H13.2641V90.165H16.6311ZM17.7491 87.656V94H16.5141V87.656H17.7491ZM27.0433 87.656V88.592H24.7293C24.2613 88.592 24.0056 88.839 23.9623 89.333C23.9103 89.9743 23.8236 90.568 23.7023 91.114C23.5896 91.6513 23.4292 92.1583 23.2212 92.635C23.0219 93.103 22.7489 93.558 22.4022 94H21.3752C21.7132 93.4887 21.9776 92.9687 22.1682 92.44C22.3589 91.9027 22.5062 91.3567 22.6102 90.802C22.7229 90.2473 22.7966 89.6883 22.8312 89.125C22.8746 88.631 23.0306 88.2627 23.2993 88.02C23.5679 87.7773 23.9579 87.656 24.4693 87.656H27.0433ZM22.1032 93.935L21.9862 95.859H21.1672V93.935H22.1032ZM28.0962 93.038V94H21.1672V93.038H28.0962ZM28.0962 93.935V95.859H27.2643L27.1473 93.935H28.0962ZM27.1993 87.656V94H26.0033V87.656H27.1993ZM37.3097 87.656V94H36.1787V89.957C36.1787 89.8097 36.183 89.6667 36.1917 89.528C36.2004 89.3893 36.2134 89.2377 36.2307 89.073H36.1917C36.1397 89.203 36.0704 89.3417 35.9837 89.489C35.9057 89.6277 35.8277 89.749 35.7497 89.853L32.6687 94H31.6157V87.656H32.7467V91.712C32.7467 91.8507 32.7424 91.9893 32.7337 92.128C32.7337 92.2667 32.725 92.4183 32.7077 92.583H32.7337C32.803 92.4443 32.8767 92.31 32.9547 92.18C33.0327 92.0413 33.1107 91.9243 33.1887 91.829L36.2697 87.656H37.3097ZM44.0414 87.591C44.7087 87.591 45.2374 87.6387 45.6274 87.734C46.0174 87.8293 46.299 87.9983 46.4724 88.241C46.6544 88.4837 46.7454 88.8303 46.7454 89.281C46.7454 89.7317 46.637 90.074 46.4204 90.308C46.2037 90.5333 45.8527 90.6677 45.3674 90.711V90.75C45.9567 90.7933 46.3684 90.958 46.6024 91.244C46.845 91.53 46.9664 91.9287 46.9664 92.44C46.9664 92.8733 46.8797 93.2113 46.7064 93.454C46.533 93.688 46.26 93.8527 45.8874 93.948C45.5147 94.0433 45.0207 94.091 44.4054 94.091C43.946 94.091 43.543 94.0867 43.1964 94.078C42.8584 94.078 42.5464 94.0693 42.2604 94.052C41.983 94.0433 41.6884 94.0303 41.3764 94.013L41.5324 93.116C41.7057 93.1247 42.0307 93.1333 42.5074 93.142C42.9927 93.142 43.5604 93.142 44.2104 93.142C44.583 93.142 44.8777 93.116 45.0944 93.064C45.3197 93.012 45.4757 92.9167 45.5624 92.778C45.6577 92.6307 45.7054 92.427 45.7054 92.167C45.7054 91.777 45.5927 91.5127 45.3674 91.374C45.142 91.2267 44.739 91.153 44.1584 91.153H41.5194V90.308H44.1584C44.4964 90.308 44.765 90.2863 44.9644 90.243C45.1724 90.191 45.3197 90.1 45.4064 89.97C45.5017 89.8313 45.5494 89.6407 45.5494 89.398C45.5494 89.164 45.4974 88.9863 45.3934 88.865C45.298 88.7437 45.1377 88.657 44.9124 88.605C44.687 88.553 44.3837 88.527 44.0024 88.527C43.6124 88.5183 43.2657 88.514 42.9624 88.514C42.659 88.514 42.3904 88.5183 42.1564 88.527C41.9224 88.527 41.7144 88.5357 41.5324 88.553L41.3764 87.669C41.6537 87.643 41.918 87.6257 42.1694 87.617C42.4207 87.6083 42.6937 87.604 42.9884 87.604C43.2917 87.5953 43.6427 87.591 44.0414 87.591ZM42.5594 87.669V94.013H41.3764V87.669H42.5594ZM56.3994 87.656V94H55.2684V89.957C55.2684 89.8097 55.2727 89.6667 55.2814 89.528C55.2901 89.3893 55.3031 89.2377 55.3204 89.073H55.2814C55.2294 89.203 55.1601 89.3417 55.0734 89.489C54.9954 89.6277 54.9174 89.749 54.8394 89.853L51.7584 94H50.7054V87.656H51.8364V91.712C51.8364 91.8507 51.8321 91.9893 51.8234 92.128C51.8234 92.2667 51.8147 92.4183 51.7974 92.583H51.8234C51.8927 92.4443 51.9664 92.31 52.0444 92.18C52.1224 92.0413 52.2004 91.9243 52.2784 91.829L55.3594 87.656H56.3994ZM65.705 87.656V88.592H63.391C62.923 88.592 62.6674 88.839 62.624 89.333C62.572 89.9743 62.4854 90.568 62.364 91.114C62.2514 91.6513 62.091 92.1583 61.883 92.635C61.6837 93.103 61.4107 93.558 61.064 94H60.037C60.375 93.4887 60.6394 92.9687 60.83 92.44C61.0207 91.9027 61.168 91.3567 61.272 90.802C61.3847 90.2473 61.4584 89.6883 61.493 89.125C61.5364 88.631 61.6924 88.2627 61.961 88.02C62.2297 87.7773 62.6197 87.656 63.131 87.656H65.705ZM60.765 93.935L60.648 95.859H59.829V93.935H60.765ZM66.758 93.038V94H59.829V93.038H66.758ZM66.758 93.935V95.859H65.926L65.809 93.935H66.758ZM65.861 87.656V94H64.665V87.656H65.861ZM75.9098 87.656L73.4268 94.299C73.3488 94.5243 73.2492 94.754 73.1278 94.988C73.0065 95.2307 72.8592 95.4603 72.6858 95.677C72.5212 95.8937 72.3262 96.08 72.1008 96.236C71.7715 96.4613 71.4032 96.5957 70.9958 96.639C70.5972 96.6823 70.1725 96.6737 69.7218 96.613L69.8258 95.755C70.1205 95.7637 70.4022 95.7507 70.6708 95.716C70.9395 95.6813 71.1778 95.599 71.3858 95.469C71.5678 95.339 71.7325 95.1613 71.8798 94.936C72.0272 94.7193 72.1528 94.481 72.2568 94.221L72.5818 93.454C72.6512 93.272 72.7205 93.0727 72.7898 92.856C72.8592 92.6307 72.9242 92.4357 72.9848 92.271L74.5578 87.656H75.9098ZM70.7228 87.656L72.3218 92.271C72.3652 92.401 72.4042 92.5353 72.4388 92.674C72.4735 92.804 72.5082 92.9383 72.5428 93.077H72.8548L72.4258 94H72.0878C71.9752 94 71.8798 93.974 71.8018 93.922C71.7325 93.8613 71.6762 93.779 71.6328 93.675L69.3838 87.656H70.7228ZM82.2175 87.5C82.7028 87.5 83.1102 87.565 83.4395 87.695C83.7688 87.8163 84.0158 88.0287 84.1805 88.332C84.3538 88.6353 84.4405 89.0513 84.4405 89.58V94H83.4525L83.2575 92.622L83.1925 92.466V89.58C83.1838 89.2073 83.0928 88.9387 82.9195 88.774C82.7548 88.6093 82.4298 88.527 81.9445 88.527C81.6065 88.527 81.1862 88.5443 80.6835 88.579C80.1895 88.6137 79.6998 88.6483 79.2145 88.683L79.0975 87.786C79.3922 87.734 79.7215 87.6863 80.0855 87.643C80.4495 87.5997 80.8178 87.565 81.1905 87.539C81.5632 87.513 81.9055 87.5 82.2175 87.5ZM83.8685 90.087L83.8555 90.971L80.8785 90.984C80.5838 90.9927 80.3758 91.0707 80.2545 91.218C80.1332 91.3567 80.0725 91.5517 80.0725 91.803V92.193C80.0725 92.505 80.1505 92.7347 80.3065 92.882C80.4625 93.0207 80.7008 93.09 81.0215 93.09C81.2642 93.09 81.5328 93.0467 81.8275 92.96C82.1308 92.8647 82.4342 92.726 82.7375 92.544C83.0408 92.3533 83.3138 92.115 83.5565 91.829V92.648C83.4785 92.7693 83.3528 92.9167 83.1795 93.09C83.0062 93.2547 82.7938 93.415 82.5425 93.571C82.2998 93.727 82.0268 93.857 81.7235 93.961C81.4202 94.065 81.0908 94.117 80.7355 94.117C80.3542 94.117 80.0162 94.052 79.7215 93.922C79.4355 93.7833 79.2102 93.584 79.0455 93.324C78.8895 93.0553 78.8115 92.7303 78.8115 92.349V91.66C78.8115 91.166 78.9675 90.7803 79.2795 90.503C79.6002 90.2257 80.0422 90.087 80.6055 90.087H83.8685ZM93.6791 87.656V88.605H91.3131C91.0531 88.605 90.8625 88.6613 90.7411 88.774C90.6285 88.8867 90.5548 89.086 90.5201 89.372C90.4768 89.7447 90.4248 90.1303 90.3641 90.529C90.3121 90.919 90.2515 91.296 90.1821 91.66C90.1215 92.0153 90.0391 92.336 89.9351 92.622C89.8311 92.9513 89.6795 93.2243 89.4801 93.441C89.2895 93.6577 89.0555 93.818 88.7781 93.922C88.5008 94.0173 88.1845 94.065 87.8291 94.065L87.6991 93.116C87.9245 93.0553 88.1065 92.9903 88.2451 92.921C88.3925 92.8517 88.5051 92.765 88.5831 92.661C88.6698 92.5483 88.7435 92.414 88.8041 92.258C88.8821 92.0673 88.9471 91.842 88.9991 91.582C89.0598 91.322 89.1075 91.0533 89.1421 90.776C89.1855 90.49 89.2201 90.2083 89.2461 89.931C89.2808 89.645 89.3111 89.385 89.3371 89.151C89.3978 88.6657 89.5581 88.2973 89.8181 88.046C90.0781 87.786 90.4725 87.656 91.0011 87.656H93.6791ZM93.8481 87.656V94H92.5871V87.656H93.8481ZM100.548 90.074C101.215 90.074 101.739 90.1347 102.121 90.256C102.502 90.3773 102.771 90.5853 102.927 90.88C103.091 91.1747 103.174 91.5733 103.174 92.076C103.174 92.596 103.091 93.0033 102.927 93.298C102.762 93.5927 102.498 93.7963 102.134 93.909C101.778 94.0217 101.315 94.078 100.743 94.078C100.318 94.078 99.9498 94.0737 99.6378 94.065C99.3258 94.065 99.0398 94.0563 98.7798 94.039C98.5198 94.0303 98.2468 94.0173 97.9608 94L98.1038 93.09C98.2685 93.0987 98.5675 93.1073 99.0008 93.116C99.4428 93.1247 99.9585 93.129 100.548 93.129C100.877 93.129 101.141 93.0987 101.341 93.038C101.54 92.9773 101.679 92.869 101.757 92.713C101.843 92.557 101.887 92.3273 101.887 92.024C101.887 91.7553 101.848 91.543 101.77 91.387C101.692 91.231 101.557 91.1227 101.367 91.062C101.176 90.9927 100.903 90.958 100.548 90.958H98.0908V90.074H100.548ZM99.1438 87.656V94H97.9218V87.656H99.1438ZM107.991 87.656V94H106.756V87.656H107.991ZM111.28 90.165V91.101H107.913V90.165H111.28ZM112.398 87.656V94H111.163V87.656H112.398ZM119.521 87.5C120.006 87.5 120.414 87.565 120.743 87.695C121.072 87.8163 121.319 88.0287 121.484 88.332C121.657 88.6353 121.744 89.0513 121.744 89.58V94H120.756L120.561 92.622L120.496 92.466V89.58C120.487 89.2073 120.396 88.9387 120.223 88.774C120.058 88.6093 119.733 88.527 119.248 88.527C118.91 88.527 118.49 88.5443 117.987 88.579C117.493 88.6137 117.003 88.6483 116.518 88.683L116.401 87.786C116.696 87.734 117.025 87.6863 117.389 87.643C117.753 87.5997 118.121 87.565 118.494 87.539C118.867 87.513 119.209 87.5 119.521 87.5ZM121.172 90.087L121.159 90.971L118.182 90.984C117.887 90.9927 117.679 91.0707 117.558 91.218C117.437 91.3567 117.376 91.5517 117.376 91.803V92.193C117.376 92.505 117.454 92.7347 117.61 92.882C117.766 93.0207 118.004 93.09 118.325 93.09C118.568 93.09 118.836 93.0467 119.131 92.96C119.434 92.8647 119.738 92.726 120.041 92.544C120.344 92.3533 120.617 92.115 120.86 91.829V92.648C120.782 92.7693 120.656 92.9167 120.483 93.09C120.31 93.2547 120.097 93.415 119.846 93.571C119.603 93.727 119.33 93.857 119.027 93.961C118.724 94.065 118.394 94.117 118.039 94.117C117.658 94.117 117.32 94.052 117.025 93.922C116.739 93.7833 116.514 93.584 116.349 93.324C116.193 93.0553 116.115 92.7303 116.115 92.349V91.66C116.115 91.166 116.271 90.7803 116.583 90.503C116.904 90.2257 117.346 90.087 117.909 90.087H121.172ZM128.045 87.578C128.53 87.578 128.933 87.5823 129.254 87.591C129.574 87.591 129.86 87.5997 130.112 87.617C130.363 87.6257 130.623 87.643 130.892 87.669L130.736 88.605C130.649 88.5877 130.363 88.5747 129.878 88.566C129.401 88.5573 128.799 88.553 128.071 88.553C127.568 88.553 127.234 88.6397 127.07 88.813C126.914 88.9777 126.836 89.2507 126.836 89.632C126.836 90.048 126.918 90.347 127.083 90.529C127.256 90.7023 127.598 90.789 128.11 90.789H130.749L130.775 91.673C130.671 91.673 130.506 91.6773 130.281 91.686C130.055 91.686 129.761 91.686 129.397 91.686C129.033 91.686 128.591 91.686 128.071 91.686C127.776 91.686 127.542 91.738 127.369 91.842C127.195 91.946 127.078 92.102 127.018 92.31L126.55 94H125.25L125.822 92.089C125.882 91.907 125.978 91.7597 126.108 91.647C126.246 91.5343 126.398 91.452 126.563 91.4C126.736 91.348 126.901 91.3133 127.057 91.296V91.244C126.71 91.1833 126.428 91.0793 126.212 90.932C126.004 90.776 125.852 90.5767 125.757 90.334C125.661 90.0913 125.614 89.8053 125.614 89.476C125.614 89.164 125.648 88.891 125.718 88.657C125.796 88.4143 125.926 88.215 126.108 88.059C126.298 87.8943 126.55 87.773 126.862 87.695C127.182 87.617 127.577 87.578 128.045 87.578ZM130.892 87.669V94H129.67V87.669H130.892Z" fill="white"/>
<path d="M2.392 140.03V149H1.092V140.03H2.392ZM6.5 140.03V141.057H2.288V140.03H6.5ZM7.657 140.03V149H6.357V140.03H7.657ZM14.8958 142.5C15.3811 142.5 15.7884 142.565 16.1178 142.695C16.4471 142.816 16.6941 143.029 16.8588 143.332C17.0321 143.635 17.1188 144.051 17.1188 144.58V149H16.1308L15.9358 147.622L15.8708 147.466V144.58C15.8621 144.207 15.7711 143.939 15.5978 143.774C15.4331 143.609 15.1081 143.527 14.6228 143.527C14.2848 143.527 13.8644 143.544 13.3618 143.579C12.8678 143.614 12.3781 143.648 11.8928 143.683L11.7758 142.786C12.0704 142.734 12.3998 142.686 12.7638 142.643C13.1278 142.6 13.4961 142.565 13.8688 142.539C14.2414 142.513 14.5838 142.5 14.8958 142.5ZM16.5468 145.087L16.5338 145.971L13.5568 145.984C13.2621 145.993 13.0541 146.071 12.9328 146.218C12.8114 146.357 12.7508 146.552 12.7508 146.803V147.193C12.7508 147.505 12.8288 147.735 12.9848 147.882C13.1408 148.021 13.3791 148.09 13.6998 148.09C13.9424 148.09 14.2111 148.047 14.5058 147.96C14.8091 147.865 15.1124 147.726 15.4158 147.544C15.7191 147.353 15.9921 147.115 16.2348 146.829V147.648C16.1568 147.769 16.0311 147.917 15.8578 148.09C15.6844 148.255 15.4721 148.415 15.2208 148.571C14.9781 148.727 14.7051 148.857 14.4018 148.961C14.0984 149.065 13.7691 149.117 13.4138 149.117C13.0324 149.117 12.6944 149.052 12.3998 148.922C12.1138 148.783 11.8884 148.584 11.7238 148.324C11.5678 148.055 11.4898 147.73 11.4898 147.349V146.66C11.4898 146.166 11.6458 145.78 11.9578 145.503C12.2784 145.226 12.7204 145.087 13.2838 145.087H16.5468ZM24.8624 142.5C25.6511 142.5 26.2144 142.786 26.5524 143.358C26.8904 143.93 27.0594 144.766 27.0594 145.867C27.0594 146.69 26.9727 147.345 26.7994 147.83C26.6261 148.307 26.3617 148.649 26.0064 148.857C25.6511 149.056 25.2047 149.156 24.6674 149.156C24.2427 149.156 23.8267 149.1 23.4194 148.987C23.0121 148.866 22.6264 148.684 22.2624 148.441L22.3404 147.739C22.7217 147.852 23.0597 147.943 23.3544 148.012C23.6491 148.081 23.9654 148.116 24.3034 148.116C24.6587 148.116 24.9404 148.055 25.1484 147.934C25.3651 147.813 25.5211 147.587 25.6164 147.258C25.7117 146.929 25.7594 146.465 25.7594 145.867C25.7594 145.278 25.7161 144.818 25.6294 144.489C25.5427 144.151 25.4041 143.913 25.2134 143.774C25.0227 143.627 24.7627 143.553 24.4334 143.553C24.1041 143.553 23.7791 143.631 23.4584 143.787C23.1377 143.934 22.7694 144.168 22.3534 144.489L22.2104 143.709C22.4271 143.466 22.6784 143.254 22.9644 143.072C23.2591 142.89 23.5711 142.751 23.9004 142.656C24.2297 142.552 24.5504 142.5 24.8624 142.5ZM22.1584 142.656L22.3014 143.943L22.3924 144.112V148.194L22.3274 148.35C22.3534 148.593 22.3707 148.831 22.3794 149.065C22.3967 149.299 22.4011 149.546 22.3924 149.806V151.587H21.1444V142.656H22.1584ZM33.7013 142.656V149H32.4403V142.656H33.7013ZM35.9633 142.656V143.67H30.1783V142.656H35.9633ZM40.5801 142.656V149H39.3451V142.656H40.5801ZM43.8691 145.165V146.101H40.5021V145.165H43.8691ZM44.9871 142.656V149H43.7521V142.656H44.9871ZM51.7203 142.5C52.6996 142.5 53.406 142.678 53.8393 143.033C54.2813 143.38 54.5066 143.895 54.5153 144.58C54.5153 145.152 54.3896 145.594 54.1383 145.906C53.887 146.218 53.4753 146.374 52.9033 146.374H49.2243V145.477H52.5783C52.8556 145.477 53.0376 145.386 53.1243 145.204C53.2196 145.022 53.263 144.814 53.2543 144.58C53.2543 144.19 53.1416 143.913 52.9163 143.748C52.6996 143.583 52.3183 143.501 51.7723 143.501C51.3303 143.501 50.9836 143.566 50.7323 143.696C50.481 143.826 50.3033 144.051 50.1993 144.372C50.0953 144.693 50.0433 145.143 50.0433 145.724C50.0433 146.374 50.1083 146.872 50.2383 147.219C50.3683 147.557 50.572 147.791 50.8493 147.921C51.1353 148.051 51.5123 148.116 51.9803 148.116C52.3183 148.116 52.691 148.103 53.0983 148.077C53.5143 148.042 53.8913 148.003 54.2293 147.96L54.3463 148.779C54.147 148.866 53.8956 148.939 53.5923 149C53.2976 149.052 52.9943 149.091 52.6823 149.117C52.3703 149.143 52.0843 149.156 51.8243 149.156C51.0876 149.156 50.4896 149.043 50.0303 148.818C49.5796 148.593 49.2503 148.237 49.0423 147.752C48.843 147.258 48.7433 146.612 48.7433 145.815C48.7433 144.983 48.8473 144.324 49.0553 143.839C49.2633 143.354 49.584 143.011 50.0173 142.812C50.4506 142.604 51.0183 142.5 51.7203 142.5ZM61.9373 142.5C62.7259 142.5 63.2893 142.786 63.6273 143.358C63.9653 143.93 64.1343 144.766 64.1343 145.867C64.1343 146.69 64.0476 147.345 63.8743 147.83C63.7009 148.307 63.4366 148.649 63.0813 148.857C62.7259 149.056 62.2796 149.156 61.7423 149.156C61.3176 149.156 60.9016 149.1 60.4943 148.987C60.0869 148.866 59.7013 148.684 59.3373 148.441L59.4153 147.739C59.7966 147.852 60.1346 147.943 60.4293 148.012C60.7239 148.081 61.0403 148.116 61.3783 148.116C61.7336 148.116 62.0153 148.055 62.2233 147.934C62.4399 147.813 62.5959 147.587 62.6913 147.258C62.7866 146.929 62.8343 146.465 62.8343 145.867C62.8343 145.278 62.7909 144.818 62.7043 144.489C62.6176 144.151 62.4789 143.913 62.2883 143.774C62.0976 143.627 61.8376 143.553 61.5083 143.553C61.1789 143.553 60.8539 143.631 60.5333 143.787C60.2126 143.934 59.8443 144.168 59.4283 144.489L59.2853 143.709C59.5019 143.466 59.7533 143.254 60.0393 143.072C60.3339 142.89 60.6459 142.751 60.9753 142.656C61.3046 142.552 61.6253 142.5 61.9373 142.5ZM59.2333 142.656L59.3763 143.943L59.4673 144.112V148.194L59.4023 148.35C59.4283 148.593 59.4456 148.831 59.4543 149.065C59.4716 149.299 59.4759 149.546 59.4673 149.806V151.587H58.2193V142.656H59.2333ZM70.9842 142.5C71.4695 142.5 71.8768 142.565 72.2062 142.695C72.5355 142.816 72.7825 143.029 72.9472 143.332C73.1205 143.635 73.2072 144.051 73.2072 144.58V149H72.2192L72.0242 147.622L71.9592 147.466V144.58C71.9505 144.207 71.8595 143.939 71.6862 143.774C71.5215 143.609 71.1965 143.527 70.7112 143.527C70.3732 143.527 69.9528 143.544 69.4502 143.579C68.9562 143.614 68.4665 143.648 67.9812 143.683L67.8642 142.786C68.1588 142.734 68.4882 142.686 68.8522 142.643C69.2162 142.6 69.5845 142.565 69.9572 142.539C70.3298 142.513 70.6722 142.5 70.9842 142.5ZM72.6352 145.087L72.6222 145.971L69.6452 145.984C69.3505 145.993 69.1425 146.071 69.0212 146.218C68.8998 146.357 68.8392 146.552 68.8392 146.803V147.193C68.8392 147.505 68.9172 147.735 69.0732 147.882C69.2292 148.021 69.4675 148.09 69.7882 148.09C70.0308 148.09 70.2995 148.047 70.5942 147.96C70.8975 147.865 71.2008 147.726 71.5042 147.544C71.8075 147.353 72.0805 147.115 72.3232 146.829V147.648C72.2452 147.769 72.1195 147.917 71.9462 148.09C71.7728 148.255 71.5605 148.415 71.3092 148.571C71.0665 148.727 70.7935 148.857 70.4902 148.961C70.1868 149.065 69.8575 149.117 69.5022 149.117C69.1208 149.117 68.7828 149.052 68.4882 148.922C68.2022 148.783 67.9768 148.584 67.8122 148.324C67.6562 148.055 67.5782 147.73 67.5782 147.349V146.66C67.5782 146.166 67.7342 145.78 68.0462 145.503C68.3668 145.226 68.8088 145.087 69.3722 145.087H72.6352ZM84.4608 142.656C84.7728 142.656 84.9288 142.808 84.9288 143.111L85.1888 149H84.0188L83.7848 143.605H83.5768L82.0558 147.882C82.0211 148.012 81.9648 148.112 81.8868 148.181C81.8088 148.25 81.7005 148.285 81.5618 148.285H80.6908C80.5521 148.285 80.4438 148.25 80.3658 148.181C80.2965 148.112 80.2401 148.012 80.1968 147.882L78.6758 143.605H78.4678L78.2468 149H77.0898L77.3368 143.111C77.3455 142.808 77.5058 142.656 77.8178 142.656H79.0658C79.2045 142.656 79.3085 142.691 79.3778 142.76C79.4558 142.821 79.5121 142.92 79.5468 143.059L80.7688 146.556C80.8295 146.712 80.8771 146.864 80.9118 147.011C80.9551 147.158 80.9941 147.31 81.0288 147.466H81.2238C81.2671 147.301 81.3061 147.145 81.3408 146.998C81.3841 146.851 81.4318 146.703 81.4838 146.556L82.7058 143.059C82.7838 142.79 82.9485 142.656 83.1998 142.656H84.4608Z" fill="white"/>
<path d="M233.549 1.874C234.13 1.874 234.628 1.926 235.044 2.03C235.469 2.12533 235.794 2.316 236.019 2.602C236.244 2.87933 236.357 3.291 236.357 3.837C236.357 4.201 236.309 4.54767 236.214 4.877C236.119 5.19767 235.954 5.53133 235.72 5.878C235.495 6.216 235.183 6.606 234.784 7.048L232.249 9.83C232.474 9.81267 232.713 9.79967 232.964 9.791C233.215 9.78233 233.458 9.778 233.692 9.778H236.682V11H230.689V10.22C230.689 10.116 230.702 10.0163 230.728 9.921C230.763 9.82567 230.815 9.739 230.884 9.661L233.406 6.827C233.969 6.229 234.385 5.696 234.654 5.228C234.931 4.76 235.061 4.32233 235.044 3.915C235.035 3.64633 234.966 3.45133 234.836 3.33C234.715 3.2 234.537 3.11333 234.303 3.07C234.069 3.02667 233.783 3.005 233.445 3.005C233.168 3.005 232.899 3.00933 232.639 3.018C232.388 3.02667 232.119 3.04833 231.833 3.083C231.556 3.109 231.226 3.148 230.845 3.2L230.767 2.212C231.174 2.11667 231.534 2.04733 231.846 2.004C232.167 1.952 232.461 1.91733 232.73 1.9C233.007 1.88267 233.28 1.874 233.549 1.874ZM243.785 1.913C244.444 1.913 244.999 1.991 245.449 2.147C245.909 2.303 246.277 2.55867 246.554 2.914C246.832 3.26067 247.031 3.733 247.152 4.331C247.282 4.92033 247.347 5.64833 247.347 6.515C247.347 7.38167 247.282 8.114 247.152 8.712C247.031 9.30133 246.832 9.77367 246.554 10.129C246.277 10.4757 245.909 10.727 245.449 10.883C244.999 11.039 244.444 11.117 243.785 11.117C243.161 11.117 242.581 11.104 242.043 11.078C241.515 11.0607 241.012 11.0347 240.535 11L241.081 9.96C241.445 9.97733 241.848 9.99467 242.29 10.012C242.741 10.0207 243.239 10.025 243.785 10.025C244.34 10.025 244.778 9.91667 245.098 9.7C245.419 9.48333 245.644 9.12367 245.774 8.621C245.913 8.10967 245.982 7.40767 245.982 6.515C245.982 5.62233 245.913 4.92467 245.774 4.422C245.644 3.91067 245.419 3.54667 245.098 3.33C244.778 3.10467 244.34 2.992 243.785 2.992C243.248 2.992 242.767 2.99633 242.342 3.005C241.918 3.01367 241.502 3.02233 241.094 3.031L240.535 2.03C241.012 1.99533 241.515 1.96933 242.043 1.952C242.581 1.926 243.161 1.913 243.785 1.913ZM241.835 2.03V11H240.535V2.03H241.835ZM251.846 9.388C252.019 9.388 252.136 9.42267 252.197 9.492C252.266 9.55267 252.301 9.66967 252.301 9.843V10.675C252.301 10.9437 252.279 11.195 252.236 11.429C252.192 11.6717 252.136 11.9013 252.067 12.118C251.997 12.3347 251.911 12.547 251.807 12.755L251.235 12.586C251.287 12.3087 251.321 12.053 251.339 11.819C251.365 11.5937 251.378 11.3207 251.378 11C251.144 11 251.027 10.8657 251.027 10.597V9.843C251.035 9.66967 251.074 9.55267 251.144 9.492C251.222 9.42267 251.339 9.388 251.495 9.388H251.846ZM263.612 1.861C264.28 1.861 264.817 1.926 265.224 2.056C265.632 2.17733 265.931 2.38967 266.121 2.693C266.312 2.99633 266.407 3.41233 266.407 3.941C266.407 4.331 266.368 4.68633 266.29 5.007C266.212 5.319 266.078 5.579 265.887 5.787C265.705 5.995 265.437 6.13367 265.081 6.203V6.255C265.679 6.35033 266.087 6.593 266.303 6.983C266.529 7.373 266.646 7.88 266.654 8.504C266.663 9.11067 266.572 9.61333 266.381 10.012C266.199 10.402 265.896 10.6923 265.471 10.883C265.055 11.0737 264.483 11.169 263.755 11.169C263.279 11.169 262.793 11.143 262.299 11.091C261.814 11.0477 261.337 10.9957 260.869 10.935L260.947 9.908C261.251 9.934 261.537 9.96 261.805 9.986C262.083 10.0033 262.351 10.0163 262.611 10.025C262.88 10.0337 263.153 10.038 263.43 10.038C263.898 10.038 264.271 9.986 264.548 9.882C264.834 9.778 265.042 9.60467 265.172 9.362C265.302 9.11067 265.367 8.777 265.367 8.361C265.367 8.04033 265.324 7.763 265.237 7.529C265.151 7.295 264.982 7.113 264.73 6.983C264.488 6.84433 264.132 6.775 263.664 6.775L261.987 6.788V5.813H263.664C264.002 5.813 264.271 5.76967 264.47 5.683C264.678 5.58767 264.83 5.47067 264.925 5.332C265.029 5.18467 265.094 5.02 265.12 4.838C265.155 4.64733 265.172 4.45233 265.172 4.253C265.164 3.889 265.103 3.616 264.99 3.434C264.886 3.252 264.709 3.13067 264.457 3.07C264.206 3.00933 263.859 2.979 263.417 2.979C262.984 2.979 262.568 2.992 262.169 3.018C261.771 3.03533 261.42 3.05267 261.116 3.07L261.025 2.095C261.476 2.017 261.914 1.96067 262.338 1.926C262.763 1.88267 263.188 1.861 263.612 1.861ZM273.89 1.913C274.549 1.913 275.104 1.991 275.554 2.147C276.014 2.303 276.382 2.55867 276.659 2.914C276.937 3.26067 277.136 3.733 277.257 4.331C277.387 4.92033 277.452 5.64833 277.452 6.515C277.452 7.38167 277.387 8.114 277.257 8.712C277.136 9.30133 276.937 9.77367 276.659 10.129C276.382 10.4757 276.014 10.727 275.554 10.883C275.104 11.039 274.549 11.117 273.89 11.117C273.266 11.117 272.686 11.104 272.148 11.078C271.62 11.0607 271.117 11.0347 270.64 11L271.186 9.96C271.55 9.97733 271.953 9.99467 272.395 10.012C272.846 10.0207 273.344 10.025 273.89 10.025C274.445 10.025 274.883 9.91667 275.203 9.7C275.524 9.48333 275.749 9.12367 275.879 8.621C276.018 8.10967 276.087 7.40767 276.087 6.515C276.087 5.62233 276.018 4.92467 275.879 4.422C275.749 3.91067 275.524 3.54667 275.203 3.33C274.883 3.10467 274.445 2.992 273.89 2.992C273.353 2.992 272.872 2.99633 272.447 3.005C272.023 3.01367 271.607 3.02233 271.199 3.031L270.64 2.03C271.117 1.99533 271.62 1.96933 272.148 1.952C272.686 1.926 273.266 1.913 273.89 1.913ZM271.94 2.03V11H270.64V2.03H271.94ZM294.959 2.03C295.306 2.03 295.479 2.20767 295.479 2.563L295.856 11H294.569L294.257 3.083H293.984L292.086 9.518C292.017 9.804 291.835 9.947 291.54 9.947H290.474C290.18 9.947 289.989 9.804 289.902 9.518L288.004 3.083H287.757L287.445 11H286.171L286.522 2.563C286.54 2.20767 286.717 2.03 287.055 2.03H288.459C288.737 2.03 288.914 2.173 288.992 2.459L290.578 7.763C290.639 7.96233 290.691 8.16167 290.734 8.361C290.786 8.56033 290.838 8.76833 290.89 8.985H291.111C291.172 8.76833 291.224 8.56033 291.267 8.361C291.319 8.16167 291.376 7.95367 291.436 7.737L293.009 2.459C293.087 2.173 293.274 2.03 293.568 2.03H294.959ZM302.587 4.5C303.332 4.5 303.926 4.60833 304.368 4.825C304.81 5.04167 305.131 5.397 305.33 5.891C305.529 6.37633 305.629 7.022 305.629 7.828C305.629 8.64267 305.529 9.297 305.33 9.791C305.131 10.2763 304.81 10.6273 304.368 10.844C303.926 11.0607 303.332 11.169 302.587 11.169C301.842 11.169 301.244 11.0607 300.793 10.844C300.351 10.6273 300.03 10.2763 299.831 9.791C299.632 9.297 299.532 8.64267 299.532 7.828C299.532 7.022 299.632 6.37633 299.831 5.891C300.03 5.397 300.351 5.04167 300.793 4.825C301.244 4.60833 301.842 4.5 302.587 4.5ZM302.587 5.514C302.154 5.514 301.807 5.58333 301.547 5.722C301.296 5.86067 301.114 6.099 301.001 6.437C300.897 6.76633 300.845 7.23 300.845 7.828C300.845 8.426 300.897 8.894 301.001 9.232C301.114 9.57 301.296 9.80833 301.547 9.947C301.807 10.077 302.154 10.142 302.587 10.142C303.02 10.142 303.363 10.077 303.614 9.947C303.865 9.80833 304.043 9.57 304.147 9.232C304.251 8.894 304.303 8.426 304.303 7.828C304.303 7.23 304.251 6.76633 304.147 6.437C304.043 6.099 303.865 5.86067 303.614 5.722C303.363 5.58333 303.02 5.514 302.587 5.514ZM314.463 4.656V5.592H312.149C311.681 5.592 311.425 5.839 311.382 6.333C311.33 6.97433 311.243 7.568 311.122 8.114C311.009 8.65133 310.849 9.15833 310.641 9.635C310.441 10.103 310.168 10.558 309.822 11H308.795C309.133 10.4887 309.397 9.96867 309.588 9.44C309.778 8.90267 309.926 8.35667 310.03 7.802C310.142 7.24733 310.216 6.68833 310.251 6.125C310.294 5.631 310.45 5.26267 310.719 5.02C310.987 4.77733 311.377 4.656 311.889 4.656H314.463ZM309.523 10.935L309.406 12.859H308.587V10.935H309.523ZM315.516 10.038V11H308.587V10.038H315.516ZM315.516 10.935V12.859H314.684L314.567 10.935H315.516ZM314.619 4.656V11H313.423V4.656H314.619ZM321.662 4.5C322.642 4.5 323.348 4.67767 323.781 5.033C324.223 5.37967 324.449 5.89533 324.457 6.58C324.457 7.152 324.332 7.594 324.08 7.906C323.829 8.218 323.417 8.374 322.845 8.374H319.166V7.477H322.52C322.798 7.477 322.98 7.386 323.066 7.204C323.162 7.022 323.205 6.814 323.196 6.58C323.196 6.19 323.084 5.91267 322.858 5.748C322.642 5.58333 322.26 5.501 321.714 5.501C321.272 5.501 320.926 5.566 320.674 5.696C320.423 5.826 320.245 6.05133 320.141 6.372C320.037 6.69267 319.985 7.14333 319.985 7.724C319.985 8.374 320.05 8.87233 320.18 9.219C320.31 9.557 320.514 9.791 320.791 9.921C321.077 10.051 321.454 10.116 321.922 10.116C322.26 10.116 322.633 10.103 323.04 10.077C323.456 10.0423 323.833 10.0033 324.171 9.96L324.288 10.779C324.089 10.8657 323.838 10.9393 323.534 11C323.24 11.052 322.936 11.091 322.624 11.117C322.312 11.143 322.026 11.156 321.766 11.156C321.03 11.156 320.432 11.0433 319.972 10.818C319.522 10.5927 319.192 10.2373 318.984 9.752C318.785 9.258 318.685 8.61233 318.685 7.815C318.685 6.983 318.789 6.32433 318.997 5.839C319.205 5.35367 319.526 5.01133 319.959 4.812C320.393 4.604 320.96 4.5 321.662 4.5ZM333.374 4.656V5.605H331.008C330.748 5.605 330.558 5.66133 330.436 5.774C330.324 5.88667 330.25 6.086 330.215 6.372C330.172 6.74467 330.12 7.13033 330.059 7.529C330.007 7.919 329.947 8.296 329.877 8.66C329.817 9.01533 329.734 9.336 329.63 9.622C329.526 9.95133 329.375 10.2243 329.175 10.441C328.985 10.6577 328.751 10.818 328.473 10.922C328.196 11.0173 327.88 11.065 327.524 11.065L327.394 10.116C327.62 10.0553 327.802 9.99033 327.94 9.921C328.088 9.85167 328.2 9.765 328.278 9.661C328.365 9.54833 328.439 9.414 328.499 9.258C328.577 9.06733 328.642 8.842 328.694 8.582C328.755 8.322 328.803 8.05333 328.837 7.776C328.881 7.49 328.915 7.20833 328.941 6.931C328.976 6.645 329.006 6.385 329.032 6.151C329.093 5.66567 329.253 5.29733 329.513 5.046C329.773 4.786 330.168 4.656 330.696 4.656H333.374ZM333.543 4.656V11H332.282V4.656H333.543ZM343.311 4.656V11H342.18V6.957C342.18 6.80967 342.184 6.66667 342.193 6.528C342.202 6.38933 342.215 6.23767 342.232 6.073H342.193C342.141 6.203 342.072 6.34167 341.985 6.489C341.907 6.62767 341.829 6.749 341.751 6.853L338.67 11H337.617V4.656H338.748V8.712C338.748 8.85067 338.744 8.98933 338.735 9.128C338.735 9.26667 338.726 9.41833 338.709 9.583H338.735C338.804 9.44433 338.878 9.31 338.956 9.18C339.034 9.04133 339.112 8.92433 339.19 8.829L342.271 4.656H343.311Z" fill="white"/>
<path d="M241.089 39.03V48H239.815V39.03H241.089ZM232.366 39.03V48H231.092V39.03H232.366ZM240.179 46.973V48H232.262L232.249 46.973H240.179ZM236.721 39.03V48H235.46V39.03H236.721ZM247.999 41.5C248.744 41.5 249.338 41.6083 249.78 41.825C250.222 42.0417 250.542 42.397 250.742 42.891C250.941 43.3763 251.041 44.022 251.041 44.828C251.041 45.6427 250.941 46.297 250.742 46.791C250.542 47.2763 250.222 47.6273 249.78 47.844C249.338 48.0607 248.744 48.169 247.999 48.169C247.253 48.169 246.655 48.0607 246.205 47.844C245.763 47.6273 245.442 47.2763 245.243 46.791C245.043 46.297 244.944 45.6427 244.944 44.828C244.944 44.022 245.043 43.3763 245.243 42.891C245.442 42.397 245.763 42.0417 246.205 41.825C246.655 41.6083 247.253 41.5 247.999 41.5ZM247.999 42.514C247.565 42.514 247.219 42.5833 246.959 42.722C246.707 42.8607 246.525 43.099 246.413 43.437C246.309 43.7663 246.257 44.23 246.257 44.828C246.257 45.426 246.309 45.894 246.413 46.232C246.525 46.57 246.707 46.8083 246.959 46.947C247.219 47.077 247.565 47.142 247.999 47.142C248.432 47.142 248.774 47.077 249.026 46.947C249.277 46.8083 249.455 46.57 249.559 46.232C249.663 45.894 249.715 45.426 249.715 44.828C249.715 44.23 249.663 43.7663 249.559 43.437C249.455 43.099 249.277 42.8607 249.026 42.722C248.774 42.5833 248.432 42.514 247.999 42.514ZM260.483 41.656L258 48.299C257.922 48.5243 257.823 48.754 257.701 48.988C257.58 49.2307 257.433 49.4603 257.259 49.677C257.095 49.8937 256.9 50.08 256.674 50.236C256.345 50.4613 255.977 50.5957 255.569 50.639C255.171 50.6823 254.746 50.6737 254.295 50.613L254.399 49.755C254.694 49.7637 254.976 49.7507 255.244 49.716C255.513 49.6813 255.751 49.599 255.959 49.469C256.141 49.339 256.306 49.1613 256.453 48.936C256.601 48.7193 256.726 48.481 256.83 48.221L257.155 47.454C257.225 47.272 257.294 47.0727 257.363 46.856C257.433 46.6307 257.498 46.4357 257.558 46.271L259.131 41.656H260.483ZM255.296 41.656L256.895 46.271C256.939 46.401 256.978 46.5353 257.012 46.674C257.047 46.804 257.082 46.9383 257.116 47.077H257.428L256.999 48H256.661C256.549 48 256.453 47.974 256.375 47.922C256.306 47.8613 256.25 47.779 256.206 47.675L253.957 41.656H255.296ZM267.648 44.256V45.166H263.696V44.256H267.648ZM274.881 38.913C275.626 38.913 276.211 38.9953 276.636 39.16C277.06 39.3247 277.364 39.6107 277.546 40.018C277.736 40.4253 277.832 41.0017 277.832 41.747C277.832 42.4837 277.741 43.06 277.559 43.476C277.385 43.8833 277.091 44.1693 276.675 44.334C276.267 44.49 275.717 44.568 275.024 44.568C274.651 44.568 274.291 44.5593 273.945 44.542C273.607 44.5247 273.295 44.4987 273.009 44.464C272.723 44.4293 272.476 44.3947 272.268 44.36C272.068 44.3167 271.93 44.2777 271.852 44.243L271.891 43.489C272.359 43.489 272.844 43.489 273.347 43.489C273.858 43.489 274.361 43.489 274.855 43.489C275.271 43.4803 275.6 43.4283 275.843 43.333C276.085 43.2377 276.259 43.0643 276.363 42.813C276.467 42.5617 276.519 42.2063 276.519 41.747C276.519 41.279 276.467 40.9193 276.363 40.668C276.259 40.4167 276.085 40.2433 275.843 40.148C275.6 40.044 275.271 39.992 274.855 39.992C274.127 39.992 273.498 39.9963 272.97 40.005C272.45 40.0137 272.094 40.0267 271.904 40.044L271.722 39.03C272.06 38.9953 272.372 38.9693 272.658 38.952C272.952 38.9347 273.273 38.926 273.62 38.926C273.966 38.9173 274.387 38.913 274.881 38.913ZM273.022 39.03V48H271.722V39.03H273.022ZM287.226 41.656L284.743 48.299C284.665 48.5243 284.566 48.754 284.444 48.988C284.323 49.2307 284.176 49.4603 284.002 49.677C283.838 49.8937 283.643 50.08 283.417 50.236C283.088 50.4613 282.72 50.5957 282.312 50.639C281.914 50.6823 281.489 50.6737 281.038 50.613L281.142 49.755C281.437 49.7637 281.719 49.7507 281.987 49.716C282.256 49.6813 282.494 49.599 282.702 49.469C282.884 49.339 283.049 49.1613 283.196 48.936C283.344 48.7193 283.469 48.481 283.573 48.221L283.898 47.454C283.968 47.272 284.037 47.0727 284.106 46.856C284.176 46.6307 284.241 46.4357 284.301 46.271L285.874 41.656H287.226ZM282.039 41.656L283.638 46.271C283.682 46.401 283.721 46.5353 283.755 46.674C283.79 46.804 283.825 46.9383 283.859 47.077H284.171L283.742 48H283.404C283.292 48 283.196 47.974 283.118 47.922C283.049 47.8613 282.993 47.779 282.949 47.675L280.7 41.656H282.039ZM297.783 41.656C298.095 41.656 298.251 41.8077 298.251 42.111L298.511 48H297.341L297.107 42.605H296.899L295.378 46.882C295.344 47.012 295.287 47.1117 295.209 47.181C295.131 47.2503 295.023 47.285 294.884 47.285H294.013C293.875 47.285 293.766 47.2503 293.688 47.181C293.619 47.1117 293.563 47.012 293.519 46.882L291.998 42.605H291.79L291.569 48H290.412L290.659 42.111C290.668 41.8077 290.828 41.656 291.14 41.656H292.388C292.527 41.656 292.631 41.6907 292.7 41.76C292.778 41.8207 292.835 41.9203 292.869 42.059L294.091 45.556C294.152 45.712 294.2 45.8637 294.234 46.011C294.278 46.1583 294.317 46.31 294.351 46.466H294.546C294.59 46.3013 294.629 46.1453 294.663 45.998C294.707 45.8507 294.754 45.7033 294.806 45.556L296.028 42.059C296.106 41.7903 296.271 41.656 296.522 41.656H297.783ZM305.062 44.074C305.712 44.074 306.219 44.1347 306.583 44.256C306.955 44.3773 307.22 44.5853 307.376 44.88C307.532 45.1747 307.61 45.5733 307.61 46.076C307.61 46.596 307.527 47.0033 307.363 47.298C307.207 47.5927 306.955 47.7963 306.609 47.909C306.262 48.0217 305.811 48.078 305.257 48.078C304.832 48.078 304.464 48.0737 304.152 48.065C303.84 48.065 303.554 48.0563 303.294 48.039C303.034 48.0303 302.761 48.0173 302.475 48L302.618 47.09C302.782 47.0987 303.081 47.1073 303.515 47.116C303.948 47.1247 304.464 47.129 305.062 47.129C305.382 47.129 305.634 47.0987 305.816 47.038C306.006 46.9773 306.141 46.869 306.219 46.713C306.297 46.557 306.336 46.3273 306.336 46.024C306.336 45.6253 306.249 45.348 306.076 45.192C305.902 45.036 305.564 44.958 305.062 44.958H302.605V44.074H305.062ZM303.658 41.656V48H302.436V41.656H303.658ZM309.976 41.656V48H308.715V41.656H309.976Z" fill="white"/>
<path d="M237.605 76.03V85H236.305V77.057H234.589C234.277 77.057 234.052 77.1263 233.913 77.265C233.774 77.395 233.696 77.616 233.679 77.928C233.644 78.5347 233.597 79.1067 233.536 79.644C233.475 80.1727 233.402 80.6753 233.315 81.152C233.228 81.62 233.116 82.075 232.977 82.517C232.838 82.9503 232.674 83.3707 232.483 83.778C232.301 84.1853 232.08 84.5927 231.82 85H230.637C231.07 84.272 231.408 83.5093 231.651 82.712C231.894 81.9147 232.076 81.0957 232.197 80.255C232.318 79.4143 232.401 78.5737 232.444 77.733C232.47 77.2043 232.643 76.7883 232.964 76.485C233.293 76.1817 233.74 76.03 234.303 76.03H237.605ZM231.313 84.909L231.183 86.963H230.273V84.909H231.313ZM238.723 83.973V85H230.273V83.973H238.723ZM238.723 84.909V86.963H237.813L237.709 84.909H238.723ZM247.877 78.656V85H246.746V80.957C246.746 80.8097 246.751 80.6667 246.759 80.528C246.768 80.3893 246.781 80.2377 246.798 80.073H246.759C246.707 80.203 246.638 80.3417 246.551 80.489C246.473 80.6277 246.395 80.749 246.317 80.853L243.236 85H242.183V78.656H243.314V82.712C243.314 82.8507 243.31 82.9893 243.301 83.128C243.301 83.2667 243.293 83.4183 243.275 83.583H243.301C243.371 83.4443 243.444 83.31 243.522 83.18C243.6 83.0413 243.678 82.9243 243.756 82.829L246.837 78.656H247.877ZM257.17 78.656V79.605H254.804C254.544 79.605 254.353 79.6613 254.232 79.774C254.119 79.8867 254.046 80.086 254.011 80.372C253.968 80.7447 253.916 81.1303 253.855 81.529C253.803 81.919 253.742 82.296 253.673 82.66C253.612 83.0153 253.53 83.336 253.426 83.622C253.322 83.9513 253.17 84.2243 252.971 84.441C252.78 84.6577 252.546 84.818 252.269 84.922C251.992 85.0173 251.675 85.065 251.32 85.065L251.19 84.116C251.415 84.0553 251.597 83.9903 251.736 83.921C251.883 83.8517 251.996 83.765 252.074 83.661C252.161 83.5483 252.234 83.414 252.295 83.258C252.373 83.0673 252.438 82.842 252.49 82.582C252.551 82.322 252.598 82.0533 252.633 81.776C252.676 81.49 252.711 81.2083 252.737 80.931C252.772 80.645 252.802 80.385 252.828 80.151C252.889 79.6657 253.049 79.2973 253.309 79.046C253.569 78.786 253.963 78.656 254.492 78.656H257.17ZM257.339 78.656V85H256.078V78.656H257.339ZM264.091 78.5C265.07 78.5 265.776 78.6777 266.21 79.033C266.652 79.3797 266.877 79.8953 266.886 80.58C266.886 81.152 266.76 81.594 266.509 81.906C266.257 82.218 265.846 82.374 265.274 82.374H261.595V81.477H264.949C265.226 81.477 265.408 81.386 265.495 81.204C265.59 81.022 265.633 80.814 265.625 80.58C265.625 80.19 265.512 79.9127 265.287 79.748C265.07 79.5833 264.689 79.501 264.143 79.501C263.701 79.501 263.354 79.566 263.103 79.696C262.851 79.826 262.674 80.0513 262.57 80.372C262.466 80.6927 262.414 81.1433 262.414 81.724C262.414 82.374 262.479 82.8723 262.609 83.219C262.739 83.557 262.942 83.791 263.22 83.921C263.506 84.051 263.883 84.116 264.351 84.116C264.689 84.116 265.061 84.103 265.469 84.077C265.885 84.0423 266.262 84.0033 266.6 83.96L266.717 84.779C266.517 84.8657 266.266 84.9393 265.963 85C265.668 85.052 265.365 85.091 265.053 85.117C264.741 85.143 264.455 85.156 264.195 85.156C263.458 85.156 262.86 85.0433 262.401 84.818C261.95 84.5927 261.621 84.2373 261.413 83.752C261.213 83.258 261.114 82.6123 261.114 81.815C261.114 80.983 261.218 80.3243 261.426 79.839C261.634 79.3537 261.954 79.0113 262.388 78.812C262.821 78.604 263.389 78.5 264.091 78.5ZM274.308 78.5C275.096 78.5 275.66 78.786 275.998 79.358C276.336 79.93 276.505 80.7663 276.505 81.867C276.505 82.6903 276.418 83.3447 276.245 83.83C276.071 84.3067 275.807 84.649 275.452 84.857C275.096 85.0563 274.65 85.156 274.113 85.156C273.688 85.156 273.272 85.0997 272.865 84.987C272.457 84.8657 272.072 84.6837 271.708 84.441L271.786 83.739C272.167 83.8517 272.505 83.9427 272.8 84.012C273.094 84.0813 273.411 84.116 273.749 84.116C274.104 84.116 274.386 84.0553 274.594 83.934C274.81 83.8127 274.966 83.5873 275.062 83.258C275.157 82.9287 275.205 82.465 275.205 81.867C275.205 81.2777 275.161 80.8183 275.075 80.489C274.988 80.151 274.849 79.9127 274.659 79.774C274.468 79.6267 274.208 79.553 273.879 79.553C273.549 79.553 273.224 79.631 272.904 79.787C272.583 79.9343 272.215 80.1683 271.799 80.489L271.656 79.709C271.872 79.4663 272.124 79.254 272.41 79.072C272.704 78.89 273.016 78.7513 273.346 78.656C273.675 78.552 273.996 78.5 274.308 78.5ZM271.604 78.656L271.747 79.943L271.838 80.112V84.194L271.773 84.35C271.799 84.5927 271.816 84.831 271.825 85.065C271.842 85.299 271.846 85.546 271.838 85.806V87.587H270.59V78.656H271.604ZM283.354 78.5C283.84 78.5 284.247 78.565 284.576 78.695C284.906 78.8163 285.153 79.0287 285.317 79.332C285.491 79.6353 285.577 80.0513 285.577 80.58V85H284.589L284.394 83.622L284.329 83.466V80.58C284.321 80.2073 284.23 79.9387 284.056 79.774C283.892 79.6093 283.567 79.527 283.081 79.527C282.743 79.527 282.323 79.5443 281.82 79.579C281.326 79.6137 280.837 79.6483 280.351 79.683L280.234 78.786C280.529 78.734 280.858 78.6863 281.222 78.643C281.586 78.5997 281.955 78.565 282.327 78.539C282.7 78.513 283.042 78.5 283.354 78.5ZM285.005 81.087L284.992 81.971L282.015 81.984C281.721 81.9927 281.513 82.0707 281.391 82.218C281.27 82.3567 281.209 82.5517 281.209 82.803V83.193C281.209 83.505 281.287 83.7347 281.443 83.882C281.599 84.0207 281.838 84.09 282.158 84.09C282.401 84.09 282.67 84.0467 282.964 83.96C283.268 83.8647 283.571 83.726 283.874 83.544C284.178 83.3533 284.451 83.115 284.693 82.829V83.648C284.615 83.7693 284.49 83.9167 284.316 84.09C284.143 84.2547 283.931 84.415 283.679 84.571C283.437 84.727 283.164 84.857 282.86 84.961C282.557 85.065 282.228 85.117 281.872 85.117C281.491 85.117 281.153 85.052 280.858 84.922C280.572 84.7833 280.347 84.584 280.182 84.324C280.026 84.0553 279.948 83.7303 279.948 83.349V82.66C279.948 82.166 280.104 81.7803 280.416 81.503C280.737 81.2257 281.179 81.087 281.742 81.087H285.005ZM296.831 78.656C297.143 78.656 297.299 78.8077 297.299 79.111L297.559 85H296.389L296.155 79.605H295.947L294.426 83.882C294.391 84.012 294.335 84.1117 294.257 84.181C294.179 84.2503 294.071 84.285 293.932 84.285H293.061C292.922 84.285 292.814 84.2503 292.736 84.181C292.667 84.1117 292.61 84.012 292.567 83.882L291.046 79.605H290.838L290.617 85H289.46L289.707 79.111C289.716 78.8077 289.876 78.656 290.188 78.656H291.436C291.575 78.656 291.679 78.6907 291.748 78.76C291.826 78.8207 291.882 78.9203 291.917 79.059L293.139 82.556C293.2 82.712 293.247 82.8637 293.282 83.011C293.325 83.1583 293.364 83.31 293.399 83.466H293.594C293.637 83.3013 293.676 83.1453 293.711 82.998C293.754 82.8507 293.802 82.7033 293.854 82.556L295.076 79.059C295.154 78.7903 295.319 78.656 295.57 78.656H296.831Z" fill="white"/>
<path d="M237.293 113.03C237.111 113.541 236.942 114.014 236.786 114.447C236.639 114.872 236.487 115.253 236.331 115.591C236.175 115.92 236.006 116.206 235.824 116.449C235.642 116.692 235.434 116.887 235.2 117.034C234.966 117.173 234.689 117.259 234.368 117.294V117.346C234.706 117.381 235.001 117.472 235.252 117.619C235.503 117.758 235.724 117.957 235.915 118.217C236.114 118.468 236.296 118.776 236.461 119.14C236.626 119.504 236.79 119.929 236.955 120.414C237.128 120.891 237.319 121.419 237.527 122H236.162C235.919 121.307 235.703 120.7 235.512 120.18C235.33 119.66 235.135 119.227 234.927 118.88C234.728 118.533 234.494 118.273 234.225 118.1C233.956 117.918 233.618 117.827 233.211 117.827V116.826C233.592 116.826 233.913 116.735 234.173 116.553C234.442 116.362 234.676 116.098 234.875 115.76C235.074 115.422 235.256 115.023 235.421 114.564C235.594 114.105 235.776 113.593 235.967 113.03H237.293ZM232.379 113.03V115.786C232.379 116.055 232.366 116.315 232.34 116.566C232.314 116.817 232.271 117.064 232.21 117.307C232.253 117.55 232.292 117.797 232.327 118.048C232.362 118.299 232.379 118.538 232.379 118.763V122H231.092V113.03H232.379ZM233.705 116.826V117.827H232.002V116.826H233.705ZM243.644 115.5C244.39 115.5 244.983 115.608 245.425 115.825C245.867 116.042 246.188 116.397 246.387 116.891C246.587 117.376 246.686 118.022 246.686 118.828C246.686 119.643 246.587 120.297 246.387 120.791C246.188 121.276 245.867 121.627 245.425 121.844C244.983 122.061 244.39 122.169 243.644 122.169C242.899 122.169 242.301 122.061 241.85 121.844C241.408 121.627 241.088 121.276 240.888 120.791C240.689 120.297 240.589 119.643 240.589 118.828C240.589 118.022 240.689 117.376 240.888 116.891C241.088 116.397 241.408 116.042 241.85 115.825C242.301 115.608 242.899 115.5 243.644 115.5ZM243.644 116.514C243.211 116.514 242.864 116.583 242.604 116.722C242.353 116.861 242.171 117.099 242.058 117.437C241.954 117.766 241.902 118.23 241.902 118.828C241.902 119.426 241.954 119.894 242.058 120.232C242.171 120.57 242.353 120.808 242.604 120.947C242.864 121.077 243.211 121.142 243.644 121.142C244.078 121.142 244.42 121.077 244.671 120.947C244.923 120.808 245.1 120.57 245.204 120.232C245.308 119.894 245.36 119.426 245.36 118.828C245.36 118.23 245.308 117.766 245.204 117.437C245.1 117.099 244.923 116.861 244.671 116.722C244.42 116.583 244.078 116.514 243.644 116.514ZM251.681 115.656V122H250.446V115.656H251.681ZM254.97 118.165V119.101H251.603V118.165H254.97ZM256.088 115.656V122H254.853V115.656H256.088ZM263.003 115.656V122H261.742V115.656H263.003ZM265.265 115.656V116.67H259.48V115.656H265.265ZM271.715 115.5C272.2 115.5 272.608 115.565 272.937 115.695C273.266 115.816 273.513 116.029 273.678 116.332C273.851 116.635 273.938 117.051 273.938 117.58V122H272.95L272.755 120.622L272.69 120.466V117.58C272.681 117.207 272.59 116.939 272.417 116.774C272.252 116.609 271.927 116.527 271.442 116.527C271.104 116.527 270.684 116.544 270.181 116.579C269.687 116.614 269.197 116.648 268.712 116.683L268.595 115.786C268.89 115.734 269.219 115.686 269.583 115.643C269.947 115.6 270.315 115.565 270.688 115.539C271.061 115.513 271.403 115.5 271.715 115.5ZM273.366 118.087L273.353 118.971L270.376 118.984C270.081 118.993 269.873 119.071 269.752 119.218C269.631 119.357 269.57 119.552 269.57 119.803V120.193C269.57 120.505 269.648 120.735 269.804 120.882C269.96 121.021 270.198 121.09 270.519 121.09C270.762 121.09 271.03 121.047 271.325 120.96C271.628 120.865 271.932 120.726 272.235 120.544C272.538 120.353 272.811 120.115 273.054 119.829V120.648C272.976 120.769 272.85 120.917 272.677 121.09C272.504 121.255 272.291 121.415 272.04 121.571C271.797 121.727 271.524 121.857 271.221 121.961C270.918 122.065 270.588 122.117 270.233 122.117C269.852 122.117 269.514 122.052 269.219 121.922C268.933 121.783 268.708 121.584 268.543 121.324C268.387 121.055 268.309 120.73 268.309 120.349V119.66C268.309 119.166 268.465 118.78 268.777 118.503C269.098 118.226 269.54 118.087 270.103 118.087H273.366ZM283.411 115.656C283.263 116.046 283.129 116.397 283.008 116.709C282.886 117.021 282.765 117.294 282.644 117.528C282.522 117.762 282.384 117.957 282.228 118.113C282.08 118.269 281.907 118.395 281.708 118.49C281.517 118.585 281.283 118.646 281.006 118.672V118.724C281.3 118.75 281.547 118.806 281.747 118.893C281.955 118.98 282.137 119.105 282.293 119.27C282.457 119.435 282.605 119.643 282.735 119.894C282.865 120.137 282.999 120.436 283.138 120.791C283.276 121.138 283.428 121.541 283.593 122H282.28C282.124 121.575 281.981 121.207 281.851 120.895C281.729 120.574 281.608 120.306 281.487 120.089C281.365 119.864 281.235 119.686 281.097 119.556C280.958 119.417 280.793 119.322 280.603 119.27C280.421 119.209 280.204 119.179 279.953 119.179V118.23C280.256 118.23 280.512 118.178 280.72 118.074C280.928 117.961 281.105 117.797 281.253 117.58C281.409 117.363 281.552 117.099 281.682 116.787C281.812 116.466 281.955 116.089 282.111 115.656H283.411ZM279.212 115.656V117.489C279.212 117.688 279.194 117.892 279.16 118.1C279.134 118.299 279.09 118.49 279.03 118.672C279.082 118.863 279.125 119.053 279.16 119.244C279.194 119.435 279.212 119.612 279.212 119.777V122H277.951V115.656H279.212ZM280.382 118.23V119.179H278.848V118.23H280.382ZM289.924 115.656V122H288.663V115.656H289.924ZM292.186 115.656V116.67H286.401V115.656H292.186ZM298.194 118.074C298.844 118.074 299.351 118.135 299.715 118.256C300.087 118.377 300.352 118.585 300.508 118.88C300.664 119.175 300.742 119.573 300.742 120.076C300.742 120.596 300.659 121.003 300.495 121.298C300.339 121.593 300.087 121.796 299.741 121.909C299.394 122.022 298.943 122.078 298.389 122.078C297.964 122.078 297.596 122.074 297.284 122.065C296.972 122.065 296.686 122.056 296.426 122.039C296.166 122.03 295.893 122.017 295.607 122L295.75 121.09C295.914 121.099 296.213 121.107 296.647 121.116C297.08 121.125 297.596 121.129 298.194 121.129C298.514 121.129 298.766 121.099 298.948 121.038C299.138 120.977 299.273 120.869 299.351 120.713C299.429 120.557 299.468 120.327 299.468 120.024C299.468 119.625 299.381 119.348 299.208 119.192C299.034 119.036 298.696 118.958 298.194 118.958H295.737V118.074H298.194ZM296.79 115.656V122H295.568V115.656H296.79ZM303.108 115.656V122H301.847V115.656H303.108Z" fill="white"/>
<path d="M237.293 150.03C237.111 150.541 236.942 151.014 236.786 151.447C236.639 151.872 236.487 152.253 236.331 152.591C236.175 152.92 236.006 153.206 235.824 153.449C235.642 153.692 235.434 153.887 235.2 154.034C234.966 154.173 234.689 154.259 234.368 154.294V154.346C234.706 154.381 235.001 154.472 235.252 154.619C235.503 154.758 235.724 154.957 235.915 155.217C236.114 155.468 236.296 155.776 236.461 156.14C236.626 156.504 236.79 156.929 236.955 157.414C237.128 157.891 237.319 158.419 237.527 159H236.162C235.919 158.307 235.703 157.7 235.512 157.18C235.33 156.66 235.135 156.227 234.927 155.88C234.728 155.533 234.494 155.273 234.225 155.1C233.956 154.918 233.618 154.827 233.211 154.827V153.826C233.592 153.826 233.913 153.735 234.173 153.553C234.442 153.362 234.676 153.098 234.875 152.76C235.074 152.422 235.256 152.023 235.421 151.564C235.594 151.105 235.776 150.593 235.967 150.03H237.293ZM232.379 150.03V152.786C232.379 153.055 232.366 153.315 232.34 153.566C232.314 153.817 232.271 154.064 232.21 154.307C232.253 154.55 232.292 154.797 232.327 155.048C232.362 155.299 232.379 155.538 232.379 155.763V159H231.092V150.03H232.379ZM233.705 153.826V154.827H232.002V153.826H233.705ZM243.644 152.5C244.39 152.5 244.983 152.608 245.425 152.825C245.867 153.042 246.188 153.397 246.387 153.891C246.587 154.376 246.686 155.022 246.686 155.828C246.686 156.643 246.587 157.297 246.387 157.791C246.188 158.276 245.867 158.627 245.425 158.844C244.983 159.061 244.39 159.169 243.644 159.169C242.899 159.169 242.301 159.061 241.85 158.844C241.408 158.627 241.088 158.276 240.888 157.791C240.689 157.297 240.589 156.643 240.589 155.828C240.589 155.022 240.689 154.376 240.888 153.891C241.088 153.397 241.408 153.042 241.85 152.825C242.301 152.608 242.899 152.5 243.644 152.5ZM243.644 153.514C243.211 153.514 242.864 153.583 242.604 153.722C242.353 153.861 242.171 154.099 242.058 154.437C241.954 154.766 241.902 155.23 241.902 155.828C241.902 156.426 241.954 156.894 242.058 157.232C242.171 157.57 242.353 157.808 242.604 157.947C242.864 158.077 243.211 158.142 243.644 158.142C244.078 158.142 244.42 158.077 244.671 157.947C244.923 157.808 245.1 157.57 245.204 157.232C245.308 156.894 245.36 156.426 245.36 155.828C245.36 155.23 245.308 154.766 245.204 154.437C245.1 154.099 244.923 153.861 244.671 153.722C244.42 153.583 244.078 153.514 243.644 153.514ZM251.681 152.656V159H250.446V152.656H251.681ZM254.97 155.165V156.101H251.603V155.165H254.97ZM256.088 152.656V159H254.853V152.656H256.088ZM263.874 152.5C264.853 152.5 265.633 152.613 266.214 152.838C266.803 153.055 267.228 153.406 267.488 153.891C267.757 154.376 267.891 155.022 267.891 155.828C267.891 156.634 267.757 157.284 267.488 157.778C267.228 158.263 266.803 158.614 266.214 158.831C265.633 159.048 264.853 159.156 263.874 159.156C262.895 159.156 262.106 159.048 261.508 158.831C260.919 158.614 260.49 158.263 260.221 157.778C259.961 157.284 259.831 156.634 259.831 155.828C259.831 155.022 259.961 154.376 260.221 153.891C260.49 153.406 260.919 153.055 261.508 152.838C262.106 152.613 262.895 152.5 263.874 152.5ZM263.861 153.501C263.159 153.501 262.6 153.57 262.184 153.709C261.777 153.848 261.482 154.086 261.3 154.424C261.127 154.762 261.04 155.23 261.04 155.828C261.04 156.426 261.127 156.894 261.3 157.232C261.482 157.57 261.777 157.808 262.184 157.947C262.6 158.077 263.159 158.142 263.861 158.142C264.572 158.142 265.131 158.077 265.538 157.947C265.945 157.808 266.236 157.57 266.409 157.232C266.591 156.894 266.682 156.426 266.682 155.828C266.682 155.23 266.591 154.762 266.409 154.424C266.236 154.086 265.945 153.848 265.538 153.709C265.131 153.57 264.572 153.501 263.861 153.501ZM264.446 149.9V152.695L264.394 152.968V158.545L264.446 158.87V161.587H263.289V158.87L263.328 158.545V152.981L263.289 152.695V149.9H264.446ZM277.337 152.656V159H276.206V154.957C276.206 154.81 276.21 154.667 276.219 154.528C276.228 154.389 276.241 154.238 276.258 154.073H276.219C276.167 154.203 276.098 154.342 276.011 154.489C275.933 154.628 275.855 154.749 275.777 154.853L272.696 159H271.643V152.656H272.774V156.712C272.774 156.851 272.77 156.989 272.761 157.128C272.761 157.267 272.752 157.418 272.735 157.583H272.761C272.83 157.444 272.904 157.31 272.982 157.18C273.06 157.041 273.138 156.924 273.216 156.829L276.297 152.656H277.337ZM282.821 152.617C283.384 152.617 283.952 152.621 284.524 152.63C285.104 152.639 285.655 152.673 286.175 152.734L286.123 153.618H283.354C283.094 153.618 282.903 153.679 282.782 153.8C282.669 153.913 282.613 154.099 282.613 154.359V159H281.378V154.034C281.378 153.566 281.499 153.215 281.742 152.981C281.984 152.738 282.344 152.617 282.821 152.617ZM295.273 152.656L292.79 159.299C292.712 159.524 292.613 159.754 292.491 159.988C292.37 160.231 292.223 160.46 292.049 160.677C291.885 160.894 291.69 161.08 291.464 161.236C291.135 161.461 290.767 161.596 290.359 161.639C289.961 161.682 289.536 161.674 289.085 161.613L289.189 160.755C289.484 160.764 289.766 160.751 290.034 160.716C290.303 160.681 290.541 160.599 290.749 160.469C290.931 160.339 291.096 160.161 291.243 159.936C291.391 159.719 291.516 159.481 291.62 159.221L291.945 158.454C292.015 158.272 292.084 158.073 292.153 157.856C292.223 157.631 292.288 157.436 292.348 157.271L293.921 152.656H295.273ZM290.086 152.656L291.685 157.271C291.729 157.401 291.768 157.535 291.802 157.674C291.837 157.804 291.872 157.938 291.906 158.077H292.218L291.789 159H291.451C291.339 159 291.243 158.974 291.165 158.922C291.096 158.861 291.04 158.779 290.996 158.675L288.747 152.656H290.086ZM302.32 152.5C303.109 152.5 303.672 152.786 304.01 153.358C304.348 153.93 304.517 154.766 304.517 155.867C304.517 156.69 304.43 157.345 304.257 157.83C304.084 158.307 303.819 158.649 303.464 158.857C303.109 159.056 302.662 159.156 302.125 159.156C301.7 159.156 301.284 159.1 300.877 158.987C300.47 158.866 300.084 158.684 299.72 158.441L299.798 157.739C300.179 157.852 300.517 157.943 300.812 158.012C301.107 158.081 301.423 158.116 301.761 158.116C302.116 158.116 302.398 158.055 302.606 157.934C302.823 157.813 302.979 157.587 303.074 157.258C303.169 156.929 303.217 156.465 303.217 155.867C303.217 155.278 303.174 154.818 303.087 154.489C303 154.151 302.862 153.913 302.671 153.774C302.48 153.627 302.22 153.553 301.891 153.553C301.562 153.553 301.237 153.631 300.916 153.787C300.595 153.934 300.227 154.168 299.811 154.489L299.668 153.709C299.885 153.466 300.136 153.254 300.422 153.072C300.717 152.89 301.029 152.751 301.358 152.656C301.687 152.552 302.008 152.5 302.32 152.5ZM299.616 152.656L299.759 153.943L299.85 154.112V158.194L299.785 158.35C299.811 158.593 299.828 158.831 299.837 159.065C299.854 159.299 299.859 159.546 299.85 159.806V161.587H298.602V152.656H299.616ZM311.367 152.5C311.852 152.5 312.26 152.565 312.589 152.695C312.918 152.816 313.165 153.029 313.33 153.332C313.503 153.635 313.59 154.051 313.59 154.58V159H312.602L312.407 157.622L312.342 157.466V154.58C312.333 154.207 312.242 153.939 312.069 153.774C311.904 153.609 311.579 153.527 311.094 153.527C310.756 153.527 310.336 153.544 309.833 153.579C309.339 153.614 308.849 153.648 308.364 153.683L308.247 152.786C308.542 152.734 308.871 152.686 309.235 152.643C309.599 152.6 309.967 152.565 310.34 152.539C310.713 152.513 311.055 152.5 311.367 152.5ZM313.018 155.087L313.005 155.971L310.028 155.984C309.733 155.993 309.525 156.071 309.404 156.218C309.283 156.357 309.222 156.552 309.222 156.803V157.193C309.222 157.505 309.3 157.735 309.456 157.882C309.612 158.021 309.85 158.09 310.171 158.09C310.414 158.09 310.682 158.047 310.977 157.96C311.28 157.865 311.584 157.726 311.887 157.544C312.19 157.353 312.463 157.115 312.706 156.829V157.648C312.628 157.769 312.502 157.917 312.329 158.09C312.156 158.255 311.943 158.415 311.692 158.571C311.449 158.727 311.176 158.857 310.873 158.961C310.57 159.065 310.24 159.117 309.885 159.117C309.504 159.117 309.166 159.052 308.871 158.922C308.585 158.783 308.36 158.584 308.195 158.324C308.039 158.055 307.961 157.73 307.961 157.349V156.66C307.961 156.166 308.117 155.78 308.429 155.503C308.75 155.226 309.192 155.087 309.755 155.087H313.018ZM320.463 152.656V159H319.202V152.656H320.463ZM322.725 152.656V153.67H316.94V152.656H322.725ZM328.773 152.5C329.519 152.5 330.112 152.608 330.554 152.825C330.996 153.042 331.317 153.397 331.516 153.891C331.716 154.376 331.815 155.022 331.815 155.828C331.815 156.643 331.716 157.297 331.516 157.791C331.317 158.276 330.996 158.627 330.554 158.844C330.112 159.061 329.519 159.169 328.773 159.169C328.028 159.169 327.43 159.061 326.979 158.844C326.537 158.627 326.217 158.276 326.017 157.791C325.818 157.297 325.718 156.643 325.718 155.828C325.718 155.022 325.818 154.376 326.017 153.891C326.217 153.397 326.537 153.042 326.979 152.825C327.43 152.608 328.028 152.5 328.773 152.5ZM328.773 153.514C328.34 153.514 327.993 153.583 327.733 153.722C327.482 153.861 327.3 154.099 327.187 154.437C327.083 154.766 327.031 155.23 327.031 155.828C327.031 156.426 327.083 156.894 327.187 157.232C327.3 157.57 327.482 157.808 327.733 157.947C327.993 158.077 328.34 158.142 328.773 158.142C329.207 158.142 329.549 158.077 329.8 157.947C330.052 157.808 330.229 157.57 330.333 157.232C330.437 156.894 330.489 156.426 330.489 155.828C330.489 155.23 330.437 154.766 330.333 154.437C330.229 154.099 330.052 153.861 329.8 153.722C329.549 153.583 329.207 153.514 328.773 153.514ZM339.306 152.5C340.095 152.5 340.658 152.786 340.996 153.358C341.334 153.93 341.503 154.766 341.503 155.867C341.503 156.69 341.416 157.345 341.243 157.83C341.07 158.307 340.805 158.649 340.45 158.857C340.095 159.056 339.648 159.156 339.111 159.156C338.686 159.156 338.27 159.1 337.863 158.987C337.456 158.866 337.07 158.684 336.706 158.441L336.784 157.739C337.165 157.852 337.503 157.943 337.798 158.012C338.093 158.081 338.409 158.116 338.747 158.116C339.102 158.116 339.384 158.055 339.592 157.934C339.809 157.813 339.965 157.587 340.06 157.258C340.155 156.929 340.203 156.465 340.203 155.867C340.203 155.278 340.16 154.818 340.073 154.489C339.986 154.151 339.848 153.913 339.657 153.774C339.466 153.627 339.206 153.553 338.877 153.553C338.548 153.553 338.223 153.631 337.902 153.787C337.581 153.934 337.213 154.168 336.797 154.489L336.654 153.709C336.871 153.466 337.122 153.254 337.408 153.072C337.703 152.89 338.015 152.751 338.344 152.656C338.673 152.552 338.994 152.5 339.306 152.5ZM336.602 152.656L336.745 153.943L336.836 154.112V158.194L336.771 158.35C336.797 158.593 336.814 158.831 336.823 159.065C336.84 159.299 336.845 159.546 336.836 159.806V161.587H335.588V152.656H336.602Z" fill="white"/>
<path d="M7.57472 2.03C7.39272 2.58467 7.22805 3.083 7.08072 3.525C6.93339 3.95833 6.78172 4.33967 6.62572 4.669C6.47839 4.99833 6.31805 5.27567 6.14472 5.501C5.97139 5.72633 5.76772 5.904 5.53372 6.034C5.29972 6.164 5.01805 6.25067 4.68872 6.294V6.346C5.03539 6.38933 5.33439 6.476 5.58572 6.606C5.83705 6.736 6.05372 6.92233 6.23572 7.165C6.42639 7.40767 6.59972 7.70667 6.75572 8.062C6.92039 8.41733 7.08505 8.83767 7.24972 9.323C7.41439 9.80833 7.60505 10.3673 7.82172 11H6.10572C5.87172 10.272 5.66372 9.65233 5.48172 9.141C5.30839 8.621 5.12639 8.20067 4.93572 7.88C4.75372 7.55067 4.53705 7.308 4.28572 7.152C4.04305 6.996 3.73105 6.918 3.34972 6.918L3.33672 5.735C3.70072 5.735 4.00405 5.65267 4.24672 5.488C4.49805 5.32333 4.71472 5.085 4.89672 4.773C5.07872 4.45233 5.24772 4.06233 5.40372 3.603C5.55972 3.14367 5.73305 2.61933 5.92372 2.03H7.57472ZM2.66072 2.03V4.682C2.66072 4.95933 2.63905 5.23667 2.59572 5.514C2.56105 5.78267 2.50472 6.047 2.42672 6.307C2.48739 6.55833 2.53939 6.81833 2.58272 7.087C2.63472 7.347 2.66072 7.59833 2.66072 7.841V11H1.03572V2.03H2.66072ZM3.88272 5.735V6.918H2.21872V5.735H3.88272ZM14.3223 4.461C14.8337 4.461 15.2627 4.53033 15.6093 4.669C15.956 4.799 16.2203 5.02433 16.4023 5.345C16.5843 5.66567 16.6753 6.10767 16.6753 6.671V11H15.4273L15.2063 9.622L15.1023 9.44V6.658C15.0937 6.32 15.0113 6.07733 14.8553 5.93C14.6993 5.774 14.4047 5.696 13.9713 5.696C13.6333 5.696 13.213 5.709 12.7103 5.735C12.2163 5.761 11.718 5.79567 11.2153 5.839L11.0723 4.76C11.3757 4.69933 11.718 4.64733 12.0993 4.604C12.4893 4.56067 12.875 4.526 13.2563 4.5C13.6463 4.474 14.0017 4.461 14.3223 4.461ZM15.9993 7.074L15.9863 8.049H13.0743C12.8057 8.05767 12.615 8.127 12.5023 8.257C12.3897 8.387 12.3333 8.56467 12.3333 8.79V9.141C12.3333 9.401 12.4027 9.60033 12.5413 9.739C12.6887 9.869 12.9053 9.934 13.1913 9.934C13.4253 9.934 13.6853 9.88633 13.9713 9.791C14.2573 9.69567 14.539 9.557 14.8163 9.375C15.1023 9.193 15.358 8.97633 15.5833 8.725V9.544C15.5053 9.674 15.384 9.83 15.2193 10.012C15.0547 10.1853 14.851 10.3587 14.6083 10.532C14.3743 10.7053 14.1013 10.8483 13.7893 10.961C13.4773 11.0737 13.135 11.13 12.7623 11.13C12.381 11.13 12.0387 11.065 11.7353 10.935C11.432 10.7963 11.1937 10.597 11.0203 10.337C10.8557 10.0683 10.7733 9.739 10.7733 9.349V8.673C10.7733 8.17033 10.938 7.78033 11.2673 7.503C11.5967 7.217 12.056 7.074 12.6453 7.074H15.9993ZM23.6882 4.617V11H22.1152V4.617H23.6882ZM25.8852 4.617V5.852H19.9052V4.617H25.8852ZM32.371 4.461C32.8823 4.461 33.3113 4.53033 33.658 4.669C34.0047 4.799 34.269 5.02433 34.451 5.345C34.633 5.66567 34.724 6.10767 34.724 6.671V11H33.476L33.255 9.622L33.151 9.44V6.658C33.1423 6.32 33.06 6.07733 32.904 5.93C32.748 5.774 32.4533 5.696 32.02 5.696C31.682 5.696 31.2617 5.709 30.759 5.735C30.265 5.761 29.7667 5.79567 29.264 5.839L29.121 4.76C29.4243 4.69933 29.7667 4.64733 30.148 4.604C30.538 4.56067 30.9237 4.526 31.305 4.5C31.695 4.474 32.0503 4.461 32.371 4.461ZM34.048 7.074L34.035 8.049H31.123C30.8543 8.05767 30.6637 8.127 30.551 8.257C30.4383 8.387 30.382 8.56467 30.382 8.79V9.141C30.382 9.401 30.4513 9.60033 30.59 9.739C30.7373 9.869 30.954 9.934 31.24 9.934C31.474 9.934 31.734 9.88633 32.02 9.791C32.306 9.69567 32.5877 9.557 32.865 9.375C33.151 9.193 33.4067 8.97633 33.632 8.725V9.544C33.554 9.674 33.4327 9.83 33.268 10.012C33.1033 10.1853 32.8997 10.3587 32.657 10.532C32.423 10.7053 32.15 10.8483 31.838 10.961C31.526 11.0737 31.1837 11.13 30.811 11.13C30.4297 11.13 30.0873 11.065 29.784 10.935C29.4807 10.7963 29.2423 10.597 29.069 10.337C28.9043 10.0683 28.822 9.739 28.822 9.349V8.673C28.822 8.17033 28.9867 7.78033 29.316 7.503C29.6453 7.217 30.1047 7.074 30.694 7.074H34.048ZM44.1159 4.617V5.748H41.6329C41.3989 5.748 41.2256 5.80433 41.1129 5.917C41.0089 6.021 40.9396 6.19867 40.9049 6.45C40.8616 6.814 40.8139 7.18667 40.7619 7.568C40.7099 7.94067 40.6536 8.30033 40.5929 8.647C40.5322 8.985 40.4586 9.28833 40.3719 9.557C40.2766 9.93833 40.1162 10.246 39.8909 10.48C39.6656 10.714 39.3926 10.8787 39.0719 10.974C38.7599 11.0607 38.4089 11.091 38.0189 11.065L37.8499 9.895C38.0666 9.843 38.2486 9.78667 38.3959 9.726C38.5432 9.66533 38.6602 9.58733 38.7469 9.492C38.8336 9.39667 38.9072 9.271 38.9679 9.115C39.0286 8.94167 39.0806 8.738 39.1239 8.504C39.1759 8.27 39.2192 8.023 39.2539 7.763C39.2972 7.49433 39.3319 7.22567 39.3579 6.957C39.3839 6.67967 39.4099 6.41533 39.4359 6.164C39.4966 5.66133 39.6569 5.28 39.9169 5.02C40.1856 4.75133 40.5886 4.617 41.1259 4.617H44.1159ZM44.2849 4.617V11H42.7119V4.617H44.2849ZM51.0722 4.461C51.8435 4.461 52.4589 4.56933 52.9182 4.786C53.3862 5.00267 53.7199 5.358 53.9192 5.852C54.1272 6.346 54.2312 7.00033 54.2312 7.815C54.2312 8.62967 54.1272 9.284 53.9192 9.778C53.7199 10.2633 53.3862 10.6187 52.9182 10.844C52.4589 11.0607 51.8435 11.169 51.0722 11.169C50.3009 11.169 49.6812 11.0607 49.2132 10.844C48.7452 10.6187 48.4072 10.2633 48.1992 9.778C47.9912 9.284 47.8872 8.62967 47.8872 7.815C47.8872 7.00033 47.9912 6.346 48.1992 5.852C48.4072 5.358 48.7452 5.00267 49.2132 4.786C49.6812 4.56933 50.3009 4.461 51.0722 4.461ZM51.0722 5.657C50.6822 5.657 50.3745 5.722 50.1492 5.852C49.9325 5.97333 49.7765 6.19 49.6812 6.502C49.5859 6.814 49.5382 7.25167 49.5382 7.815C49.5382 8.37833 49.5859 8.816 49.6812 9.128C49.7765 9.44 49.9325 9.65667 50.1492 9.778C50.3745 9.89933 50.6822 9.96 51.0722 9.96C51.4535 9.96 51.7525 9.89933 51.9692 9.778C52.1945 9.65667 52.3505 9.44 52.4372 9.128C52.5325 8.816 52.5802 8.37833 52.5802 7.815C52.5802 7.25167 52.5325 6.814 52.4372 6.502C52.3505 6.19 52.1945 5.97333 51.9692 5.852C51.7525 5.722 51.4535 5.657 51.0722 5.657ZM59.3533 4.578C59.9253 4.578 60.506 4.58233 61.0953 4.591C61.6933 4.59967 62.248 4.63867 62.7593 4.708L62.6943 5.813H60.0423C59.7996 5.813 59.6263 5.865 59.5223 5.969C59.4183 6.073 59.3663 6.242 59.3663 6.476V11H57.8063V6.047C57.8063 5.553 57.9363 5.18467 58.1963 4.942C58.4563 4.69933 58.842 4.578 59.3533 4.578Z" fill="white"/>
</svg>
